{"accessors":[{"bufferView":0,"componentType":5126,"count":101,"min":[-4.202510833740234,-0.9786112308502197,-3.6343815326690676],"max":[4.202510833740234,0.5748421549797058,2.303337574005127],"type":"VEC3","name":"x6_fuselage_vertices#0_POSITION"},{"bufferView":0,"byteOffset":12,"componentType":5120,"count":101,"type":"VEC4","name":"x6_fuselage_vertices#0_TANGENT"},{"bufferView":0,"byteOffset":16,"componentType":5120,"count":101,"type":"VEC4","name":"x6_fuselage_vertices#0_NORMAL"},{"bufferView":0,"byteOffset":20,"componentType":5122,"count":101,"type":"VEC2","name":"x6_fuselage_vertices#0_TEXCOORD_0"},{"bufferView":0,"byteOffset":24,"componentType":5122,"count":101,"type":"VEC2","name":"x6_fuselage_vertices#0_TEXCOORD_1"},{"bufferView":0,"byteOffset":28,"componentType":5123,"count":101,"type":"VEC4","name":"x6_fuselage_vertices#0_COLOR_0"},{"bufferView":1,"componentType":5123,"count":192,"type":"SCALAR","name":"x6_fuselage_indices#0"}],"asset":{"generator":"babylon.js glTF exporter for 3dsmax 2019 v1.0.7611.18261","version":"2.0","extensions":{"ASOBO_asset_optimized":{"BoundingBoxMax":[4.202510833740234,0.5748421549797058,2.303337574005127],"BoundingBoxMin":[-4.202510833740234,-0.9786112308502197,-3.6343815326690676],"MajorVersion":4,"MinorVersion":2},"ASOBO_normal_map_convention":{"tangent_space_convention":"DirectX"}}},"bufferViews":[{"buffer":0,"byteLength":3636,"byteStride":36,"target":34962,"name":"BufferViewVertexND"},{"buffer":0,"byteLength":384,"byteOffset":3636,"target":34963,"name":"BufferViewIndex"}],"extensionsUsed":["ASOBO_normal_map_convention","MSFT_texture_dds","ASOBO_asset_optimized"],"extensionsRequired":["MSFT_texture_dds"],"materials":[{"name":"LOD_x6","alphaMode":"BLEND","occlusionTexture":{"index":1},"pbrMetallicRoughness":{"metallicFactor":0.0,"roughnessFactor":0.0,"baseColorTexture":{"index":0},"metallicRoughnessTexture":{"index":1}}}],"meshes":[{"primitives":[{"attributes":{"COLOR_0":5,"NORMAL":2,"POSITION":0,"TANGENT":1,"TEXCOORD_0":3,"TEXCOORD_1":4},"indices":6,"material":0,"mode":4,"extras":{"ASOBO_primitive":{"PrimitiveCount":64,"VertexType":"VTX","VertexVersion":2}}}],"name":"x6_fuselage"}],"nodes":[{"translation":[5.96046448e-8,0.443891346,-0.630051732],"rotation":[0.0,0.0,0.0,1.0],"scale":[1.0,1.0,1.0],"mesh":0,"name":"fuselage"}],"scene":0,"scenes":[{"nodes":[0]}],"textures":[{"extensions":{"MSFT_texture_dds":{"source":0}}},{"extensions":{"MSFT_texture_dds":{"source":1}}}],"buffers":[{"byteLength":4020,"uri":"VL3_LOD06.bin"}],"images":[{"uri":"JMB_VL3_AIRFRAME_X6_ALBD.PNG.DDS","extras":"ASOBO_image_converted_meta"},{"uri":"JMB_VL3_AIRFRAME_X6_COMP.PNG.DDS","extras":"ASOBO_image_converted_meta"}]}
