{"accessors":[{"bufferView":0,"componentType":5126,"count":551,"min":[-0.5537160038948059,-0.41681423783302309,-1.5097991228103638],"max":[0.553716242313385,0.40340757369995119,0.7954566478729248],"type":"VEC3","name":"x5_Main_Panel_vertices#0_POSITION"},{"bufferView":0,"byteOffset":12,"componentType":5120,"count":551,"type":"VEC4","name":"x5_Main_Panel_vertices#0_TANGENT"},{"bufferView":0,"byteOffset":16,"componentType":5120,"count":551,"type":"VEC4","name":"x5_Main_Panel_vertices#0_NORMAL"},{"bufferView":0,"byteOffset":20,"componentType":5122,"count":551,"type":"VEC2","name":"x5_Main_Panel_vertices#0_TEXCOORD_0"},{"bufferView":0,"byteOffset":24,"componentType":5122,"count":551,"type":"VEC2","name":"x5_Main_Panel_vertices#0_TEXCOORD_1"},{"bufferView":0,"byteOffset":28,"componentType":5123,"count":551,"type":"VEC4","name":"x5_Main_Panel_vertices#0_COLOR_0"},{"bufferView":1,"componentType":5123,"count":1167,"type":"SCALAR","name":"x5_Main_Panel_indices#4"},{"bufferView":0,"byteOffset":19836,"componentType":5126,"count":4,"min":[-0.11189724504947663,-0.07004503160715103,-1.148115380544823e-8],"max":[0.11189724504947663,0.07004503160715103,1.148115380544823e-8],"type":"VEC3","name":"x5_AS3X_Screen_1_vertices#0_POSITION"},{"bufferView":0,"byteOffset":19848,"componentType":5120,"count":4,"type":"VEC4","name":"x5_AS3X_Screen_1_vertices#0_TANGENT"},{"bufferView":0,"byteOffset":19852,"componentType":5120,"count":4,"type":"VEC4","name":"x5_AS3X_Screen_1_vertices#0_NORMAL"},{"bufferView":0,"byteOffset":19856,"componentType":5122,"count":4,"type":"VEC2","name":"x5_AS3X_Screen_1_vertices#0_TEXCOORD_0"},{"bufferView":0,"byteOffset":19860,"componentType":5122,"count":4,"type":"VEC2","name":"x5_AS3X_Screen_1_vertices#0_TEXCOORD_1"},{"bufferView":0,"byteOffset":19864,"componentType":5123,"count":4,"type":"VEC4","name":"x5_AS3X_Screen_1_vertices#0_COLOR_0"},{"bufferView":1,"byteOffset":2334,"componentType":5123,"count":6,"type":"SCALAR","name":"x5_AS3X_Screen_1_indices#0"},{"bufferView":0,"byteOffset":19980,"componentType":5126,"count":4,"min":[-0.11189724504947663,-0.07004503160715103,-1.148115380544823e-8],"max":[0.11189724504947663,0.07004503160715103,1.148115380544823e-8],"type":"VEC3","name":"x5_AS3X_Screen_2_vertices#0_POSITION"},{"bufferView":0,"byteOffset":19992,"componentType":5120,"count":4,"type":"VEC4","name":"x5_AS3X_Screen_2_vertices#0_TANGENT"},{"bufferView":0,"byteOffset":19996,"componentType":5120,"count":4,"type":"VEC4","name":"x5_AS3X_Screen_2_vertices#0_NORMAL"},{"bufferView":0,"byteOffset":20000,"componentType":5122,"count":4,"type":"VEC2","name":"x5_AS3X_Screen_2_vertices#0_TEXCOORD_0"},{"bufferView":0,"byteOffset":20004,"componentType":5122,"count":4,"type":"VEC2","name":"x5_AS3X_Screen_2_vertices#0_TEXCOORD_1"},{"bufferView":0,"byteOffset":20008,"componentType":5123,"count":4,"type":"VEC4","name":"x5_AS3X_Screen_2_vertices#0_COLOR_0"},{"bufferView":1,"byteOffset":2346,"componentType":5123,"count":6,"type":"SCALAR","name":"x5_AS3X_Screen_2_indices#0"}],"asset":{"generator":"babylon.js glTF exporter for 3dsmax 2019 v1.0.7633.28947","version":"2.0","extensions":{"ASOBO_asset_optimized":{"BoundingBoxMax":[0.553716242313385,0.40340757369995119,0.7954566478729248],"BoundingBoxMin":[-0.5537160038948059,-0.41681423783302309,-1.5097991228103638],"MajorVersion":4,"MinorVersion":2},"ASOBO_normal_map_convention":{"tangent_space_convention":"DirectX"}}},"bufferViews":[{"buffer":0,"byteLength":20124,"byteStride":36,"target":34962,"name":"BufferViewVertexND"},{"buffer":0,"byteLength":2358,"byteOffset":20124,"target":34963,"name":"BufferViewIndex"}],"extensionsUsed":["ASOBO_normal_map_convention","ASOBO_material_detail_map","MSFT_texture_dds","ASOBO_asset_optimized"],"extensionsRequired":["MSFT_texture_dds"],"materials":[{"name":"Main_interior","normalTexture":{"index":2},"occlusionTexture":{"index":1},"pbrMetallicRoughness":{"baseColorTexture":{"index":0},"metallicRoughnessTexture":{"index":1}}},{"name":"Carbon","normalTexture":{"index":5},"occlusionTexture":{"index":4},"pbrMetallicRoughness":{"baseColorTexture":{"index":3},"metallicRoughnessTexture":{"index":4}}},{"name":"Seats","normalTexture":{"index":8},"occlusionTexture":{"index":7},"pbrMetallicRoughness":{"baseColorTexture":{"index":6},"metallicRoughnessTexture":{"index":7}}},{"name":"Secondary_Interior","normalTexture":{"index":11},"occlusionTexture":{"index":10},"pbrMetallicRoughness":{"baseColorTexture":{"index":9},"metallicRoughnessTexture":{"index":10}},"extensions":{"ASOBO_material_detail_map":{"UVScale":10.0,"detailNormalTexture":{"index":12}}}},{"name":"Floor","normalTexture":{"index":15},"occlusionTexture":{"index":14},"pbrMetallicRoughness":{"baseColorTexture":{"index":13},"metallicRoughnessTexture":{"index":14}}},{"name":"$AS3X_Screen_1","emissiveFactor":[1.0,1.0,1.0],"pbrMetallicRoughness":{"baseColorFactor":[0.0,0.0,0.0,1.0]}},{"name":"$AS3X_Screen_2","emissiveFactor":[1.0,1.0,1.0],"pbrMetallicRoughness":{"baseColorFactor":[0.0,0.0,0.0,1.0]}}],"meshes":[{"primitives":[{"attributes":{"COLOR_0":5,"NORMAL":2,"POSITION":0,"TANGENT":1,"TEXCOORD_0":3,"TEXCOORD_1":4},"indices":6,"material":0,"mode":4,"extras":{"ASOBO_primitive":{"PrimitiveCount":81,"VertexType":"VTX","VertexVersion":2}}},{"attributes":{"COLOR_0":5,"NORMAL":2,"POSITION":0,"TANGENT":1,"TEXCOORD_0":3,"TEXCOORD_1":4},"indices":6,"material":1,"mode":4,"extras":{"ASOBO_primitive":{"PrimitiveCount":8,"StartIndex":243,"VertexType":"VTX","VertexVersion":2}}},{"attributes":{"COLOR_0":5,"NORMAL":2,"POSITION":0,"TANGENT":1,"TEXCOORD_0":3,"TEXCOORD_1":4},"indices":6,"material":2,"mode":4,"extras":{"ASOBO_primitive":{"PrimitiveCount":72,"StartIndex":267,"VertexType":"VTX","VertexVersion":2}}},{"attributes":{"COLOR_0":5,"NORMAL":2,"POSITION":0,"TANGENT":1,"TEXCOORD_0":3,"TEXCOORD_1":4},"indices":6,"material":3,"mode":4,"extras":{"ASOBO_primitive":{"PrimitiveCount":211,"StartIndex":483,"VertexType":"VTX","VertexVersion":2}}},{"attributes":{"COLOR_0":5,"NORMAL":2,"POSITION":0,"TANGENT":1,"TEXCOORD_0":3,"TEXCOORD_1":4},"indices":6,"material":4,"mode":4,"extras":{"ASOBO_primitive":{"PrimitiveCount":17,"StartIndex":1116,"VertexType":"VTX","VertexVersion":2}}}],"name":"x5_Main_Panel"},{"primitives":[{"attributes":{"COLOR_0":12,"NORMAL":9,"POSITION":7,"TANGENT":8,"TEXCOORD_0":10,"TEXCOORD_1":11},"indices":13,"material":5,"mode":4,"extras":{"ASOBO_primitive":{"PrimitiveCount":2,"VertexType":"VTX","VertexVersion":2}}}],"name":"x5_AS3X_Screen_1"},{"primitives":[{"attributes":{"COLOR_0":19,"NORMAL":16,"POSITION":14,"TANGENT":15,"TEXCOORD_0":17,"TEXCOORD_1":18},"indices":20,"material":6,"mode":4,"extras":{"ASOBO_primitive":{"PrimitiveCount":2,"VertexType":"VTX","VertexVersion":2}}}],"name":"x5_AS3X_Screen_2"}],"nodes":[{"translation":[0.0,0.0,0.0],"rotation":[0.0,0.0,0.0,1.0],"scale":[1.0,1.0,1.0],"mesh":0,"name":"Main_Panel"},{"translation":[-0.0231123623,-0.0281729512,0.116136953],"rotation":[0.0540788025,0.0,0.0,0.9985367],"scale":[0.0138394777,0.0138394777,0.0138394777],"name":"CONTAINER_Transponder_AS21_1"},{"translation":[0.03983128,-0.0257101245,0.1115437],"rotation":[0.0540788062,0.0,0.0,0.9985367],"scale":[0.00780615676,0.0078061563,0.0078061563],"name":"CONTAINER_COM_AS92_1"},{"translation":[0.21339044,-0.01240211,0.111101247],"rotation":[0.05184924,0.0,0.0,0.998654962],"scale":[1.0,1.0,1.0],"name":"CONTAINER_AS3X_1","children":[4]},{"translation":[0.000207409263,0.0545435771,-0.00108227134],"rotation":[0.0,0.0,0.0,1.0],"scale":[1.0,1.0,1.0],"mesh":1,"name":"AS3X_Screen_1"},{"translation":[-0.195725024,-0.01240211,0.111101247],"rotation":[0.05184924,0.0,0.0,0.998654962],"scale":[1.0,1.0,1.0],"name":"CONTAINER_AS3X_2","children":[6]},{"translation":[0.000207409263,0.0545435771,-0.00108227134],"rotation":[0.0,0.0,0.0,1.0],"scale":[1.0,1.0,1.0],"mesh":2,"name":"AS3X_Screen_2"},{"translation":[0.25715,-0.3976933,-0.403372645],"rotation":[-0.121725813,0.0,0.0,0.9925638],"scale":[1.0,1.0,1.0],"name":"PILOT_0"},{"translation":[-0.257152468,-0.3976933,-0.403372645],"rotation":[-0.121725813,0.0,0.0,0.9925638],"scale":[1.0,1.0,1.0],"name":"PILOT_1"}],"scene":0,"scenes":[{"nodes":[0,1,2,3,5,7,8]}],"textures":[{"extensions":{"MSFT_texture_dds":{"source":0}}},{"extensions":{"MSFT_texture_dds":{"source":1}}},{"extensions":{"MSFT_texture_dds":{"source":2}}},{"extensions":{"MSFT_texture_dds":{"source":3}}},{"extensions":{"MSFT_texture_dds":{"source":4}}},{"extensions":{"MSFT_texture_dds":{"source":5}}},{"extensions":{"MSFT_texture_dds":{"source":6}}},{"extensions":{"MSFT_texture_dds":{"source":7}}},{"extensions":{"MSFT_texture_dds":{"source":8}}},{"extensions":{"MSFT_texture_dds":{"source":9}}},{"extensions":{"MSFT_texture_dds":{"source":10}}},{"extensions":{"MSFT_texture_dds":{"source":11}}},{"extensions":{"MSFT_texture_dds":{"source":12}}},{"extensions":{"MSFT_texture_dds":{"source":13}}},{"extensions":{"MSFT_texture_dds":{"source":14}}},{"extensions":{"MSFT_texture_dds":{"source":15}}}],"buffers":[{"byteLength":22482,"uri":"VL3_cockpit_lod5.bin"}],"images":[{"uri":"JMB_VL3_COCKPIT_MAIN_INTERIOR_ALBD.PNG.DDS","extras":"ASOBO_image_converted_meta"},{"uri":"JMB_VL3_COCKPIT_MAIN_INTERIOR_COMP.PNG.DDS","extras":"ASOBO_image_converted_meta"},{"uri":"JMB_VL3_COCKPIT_MAIN_INTERIOR_NORM.PNG.DDS","extras":"ASOBO_image_converted_meta"},{"uri":"JMB_VL3_COCKPIT_CARBON_ALBD.PNG.DDS","extras":"ASOBO_image_converted_meta"},{"uri":"JMB_VL3_COCKPIT_CARBON_COMP.PNG.DDS","extras":"ASOBO_image_converted_meta"},{"uri":"JMB_VL3_COCKPIT_CARBON_NORM.PNG.DDS","extras":"ASOBO_image_converted_meta"},{"uri":"JMB_VL3_COCKPIT_SEATS_ALBD.PNG.DDS","extras":"ASOBO_image_converted_meta"},{"uri":"JMB_VL3_COCKPIT_SEATS_COMP.PNG.DDS","extras":"ASOBO_image_converted_meta"},{"uri":"JMB_VL3_COCKPIT_SEATS_NORM.PNG.DDS","extras":"ASOBO_image_converted_meta"},{"uri":"JMB_VL3_COCKPIT_SECONDARY_INTERIOR_ALBD.PNG.DDS","extras":"ASOBO_image_converted_meta"},{"uri":"JMB_VL3_COCKPIT_SECONDARY_INTERIOR_COMP.PNG.DDS","extras":"ASOBO_image_converted_meta"},{"uri":"JMB_VL3_COCKPIT_SECONDARY_INTERIOR_NORM.PNG.DDS","extras":"ASOBO_image_converted_meta"},{"uri":"BUBBLY_PLASTIC_NORM.PNG.DDS","extras":"ASOBO_image_converted_meta"},{"uri":"JMB_VL3_COCKPIT_FLOOR_ALBD.PNG.DDS","extras":"ASOBO_image_converted_meta"},{"uri":"JMB_VL3_COCKPIT_FLOOR_COMP.PNG.DDS","extras":"ASOBO_image_converted_meta"},{"uri":"JMB_VL3_COCKPIT_FLOOR_NORM.PNG.DDS","extras":"ASOBO_image_converted_meta"}]}
