{"accessors":[{"bufferView":0,"componentType":5126,"count":3,"min":[-0.11256459355354309,-0.12090003490447998,-2.67712140083313],"max":[0.027435388416051866,-0.05796352028846741,2.76411509513855],"type":"VEC3","name":"x6_Cockpit_vertices#0_POSITION"},{"bufferView":0,"byteOffset":12,"componentType":5120,"count":3,"type":"VEC4","name":"x6_Cockpit_vertices#0_TANGENT"},{"bufferView":0,"byteOffset":16,"componentType":5120,"count":3,"type":"VEC4","name":"x6_Cockpit_vertices#0_NORMAL"},{"bufferView":0,"byteOffset":20,"componentType":5122,"count":3,"type":"VEC2","name":"x6_Cockpit_vertices#0_TEXCOORD_0"},{"bufferView":0,"byteOffset":24,"componentType":5122,"count":3,"type":"VEC2","name":"x6_Cockpit_vertices#0_TEXCOORD_1"},{"bufferView":0,"byteOffset":28,"componentType":5123,"count":3,"type":"VEC4","name":"x6_Cockpit_vertices#0_COLOR_0"},{"bufferView":1,"componentType":5123,"count":3,"type":"SCALAR","name":"x6_Cockpit_indices#0"}],"asset":{"generator":"babylon.js glTF exporter for 3dsmax 2019 v1.0.7823.24930","version":"2.0","extensions":{"ASOBO_asset_optimized":{"BoundingBoxMax":[0.027435388416051866,-0.05796352028846741,2.76411509513855],"BoundingBoxMin":[-0.11256459355354309,-0.12090003490447998,-2.67712140083313],"MajorVersion":4,"MinorVersion":3,"UseCheckerboardMaterialForMissingTextures":true},"ASOBO_normal_map_convention":{"tangent_space_convention":"DirectX"}}},"bufferViews":[{"buffer":0,"byteLength":108,"byteStride":36,"target":34962,"name":"BufferViewVertexND"},{"buffer":0,"byteLength":6,"byteOffset":108,"target":34963,"name":"BufferViewIndex"}],"materials":[{"name":"Occluder","pbrMetallicRoughness":{"baseColorFactor":[0.0,1.0,0.0,0.05]},"extensions":{"ASOBO_material_environment_occluder":{}}}],"meshes":[{"primitives":[{"attributes":{"COLOR_0":5,"NORMAL":2,"POSITION":0,"TANGENT":1,"TEXCOORD_0":3,"TEXCOORD_1":4},"indices":6,"material":0,"mode":4,"extras":{"ASOBO_primitive":{"PrimitiveCount":1,"VertexType":"VTX","VertexVersion":2}}}],"name":"x6_Cockpit"}],"nodes":[{"translation":[-0.0231123623,-0.0281729512,0.116136953],"rotation":[0.0540788025,0.0,0.0,0.9985367],"scale":[0.0138394777,0.0138394777,0.0138394777],"extensions":{"ASOBO_unique_id":{"id":"CONTAINER_Transponder_AS21_1"}},"name":"CONTAINER_Transponder_AS21_1"},{"translation":[0.03983128,-0.0257101245,0.1115437],"rotation":[0.0540788062,0.0,0.0,0.9985367],"scale":[0.00780615676,0.0078061563,0.0078061563],"extensions":{"ASOBO_unique_id":{"id":"CONTAINER_COM_AS92_1"}},"name":"CONTAINER_COM_AS92_1"},{"translation":[0.21339044,-0.01240211,0.111101247],"rotation":[0.05184924,0.0,0.0,0.998654962],"extensions":{"ASOBO_unique_id":{"id":"CONTAINER_AS3X_1"}},"name":"CONTAINER_AS3X_1"},{"translation":[-0.195725024,-0.01240211,0.111101247],"rotation":[0.05184924,0.0,0.0,0.998654962],"extensions":{"ASOBO_unique_id":{"id":"CONTAINER_AS3X_2"}},"name":"CONTAINER_AS3X_2"},{"translation":[0.0425646,0.0,-1.15396142],"mesh":0,"extensions":{"ASOBO_unique_id":{"id":"x6_Cockpit"}},"name":"Cockpit"},{"translation":[0.25715,-0.3976933,-0.403372645],"rotation":[-0.121725813,0.0,0.0,0.9925638],"extensions":{"ASOBO_unique_id":{"id":"PILOT_0"}},"name":"PILOT_0"},{"translation":[-0.257152468,-0.3976933,-0.403372645],"rotation":[-0.121725813,0.0,0.0,0.9925638],"extensions":{"ASOBO_unique_id":{"id":"PILOT_1"}},"name":"PILOT_1"}],"scene":0,"scenes":[{"nodes":[0,1,2,3,4,5,6]}],"extensionsUsed":["ASOBO_normal_map_convention","ASOBO_unique_id","ASOBO_material_environment_occluder","ASOBO_asset_optimized"],"buffers":[{"byteLength":114,"uri":"VL3_cockpit_lod6.bin"}]}
