{"accessors":[{"bufferView":0,"componentType":5126,"count":5,"min":[0.0],"max":[0.13333334],"type":"SCALAR","name":"accessorAnimationInput"},{"bufferView":1,"componentType":5126,"count":5,"type":"VEC4","name":"accessorAnimationRotations"},{"bufferView":0,"byteOffset":20,"componentType":5126,"count":2,"min":[0.0],"max":[0.13333334],"type":"SCALAR","name":"accessorAnimationInput"},{"bufferView":2,"componentType":5126,"count":2,"type":"VEC3","name":"accessorAnimationScales"},{"bufferView":0,"byteOffset":28,"componentType":5126,"count":2,"min":[0.0],"max":[0.13333334],"type":"SCALAR","name":"accessorAnimationInput"},{"bufferView":2,"byteOffset":24,"componentType":5126,"count":2,"type":"VEC3","name":"accessorAnimationScales"},{"bufferView":3,"componentType":5126,"count":146,"min":[-4.202510833740234,-0.9786112308502197,-3.6343815326690676],"max":[4.202510833740234,0.5748421549797058,2.311440944671631],"type":"VEC3","name":"x6_fuselage_vertices#0_POSITION"},{"bufferView":3,"byteOffset":12,"componentType":5120,"count":146,"type":"VEC4","name":"x6_fuselage_vertices#0_TANGENT"},{"bufferView":3,"byteOffset":16,"componentType":5120,"count":146,"type":"VEC4","name":"x6_fuselage_vertices#0_NORMAL"},{"bufferView":3,"byteOffset":20,"componentType":5122,"count":146,"type":"VEC2","name":"x6_fuselage_vertices#0_TEXCOORD_0"},{"bufferView":3,"byteOffset":24,"componentType":5122,"count":146,"type":"VEC2","name":"x6_fuselage_vertices#0_TEXCOORD_1"},{"bufferView":3,"byteOffset":28,"componentType":5123,"count":146,"type":"VEC4","name":"x6_fuselage_vertices#0_COLOR_0"},{"bufferView":4,"componentType":5123,"count":270,"type":"SCALAR","name":"x6_fuselage_indices#0"},{"bufferView":3,"byteOffset":5256,"componentType":5126,"count":18,"min":[-0.13743436336517335,-0.7976891994476318,-0.3459545373916626],"max":[0.137435644865036,0.7976889610290527,-0.014195906929671765],"type":"VEC3","name":"x6_Prop0_Still_vertices#0_POSITION"},{"bufferView":3,"byteOffset":5268,"componentType":5120,"count":18,"type":"VEC4","name":"x6_Prop0_Still_vertices#0_TANGENT"},{"bufferView":3,"byteOffset":5272,"componentType":5120,"count":18,"type":"VEC4","name":"x6_Prop0_Still_vertices#0_NORMAL"},{"bufferView":3,"byteOffset":5276,"componentType":5122,"count":18,"type":"VEC2","name":"x6_Prop0_Still_vertices#0_TEXCOORD_0"},{"bufferView":3,"byteOffset":5280,"componentType":5122,"count":18,"type":"VEC2","name":"x6_Prop0_Still_vertices#0_TEXCOORD_1"},{"bufferView":3,"byteOffset":5284,"componentType":5123,"count":18,"type":"VEC4","name":"x6_Prop0_Still_vertices#0_COLOR_0"},{"bufferView":4,"byteOffset":540,"componentType":5123,"count":30,"type":"SCALAR","name":"x6_Prop0_Still_indices#0"},{"bufferView":3,"byteOffset":5904,"componentType":5126,"count":16,"min":[-0.11151468753814697,-0.0788528248667717,-0.3403092324733734],"max":[0.08928681910037995,0.11580762267112732,-0.015611333772540093],"type":"VEC3","name":"x6_nose_cone_slow_vertices#0_POSITION"},{"bufferView":3,"byteOffset":5916,"componentType":5120,"count":16,"type":"VEC4","name":"x6_nose_cone_slow_vertices#0_TANGENT"},{"bufferView":3,"byteOffset":5920,"componentType":5120,"count":16,"type":"VEC4","name":"x6_nose_cone_slow_vertices#0_NORMAL"},{"bufferView":3,"byteOffset":5924,"componentType":5122,"count":16,"type":"VEC2","name":"x6_nose_cone_slow_vertices#0_TEXCOORD_0"},{"bufferView":3,"byteOffset":5928,"componentType":5122,"count":16,"type":"VEC2","name":"x6_nose_cone_slow_vertices#0_TEXCOORD_1"},{"bufferView":3,"byteOffset":5932,"componentType":5123,"count":16,"type":"VEC4","name":"x6_nose_cone_slow_vertices#0_COLOR_0"},{"bufferView":4,"byteOffset":600,"componentType":5123,"count":45,"type":"SCALAR","name":"x6_nose_cone_slow_indices#0"},{"bufferView":3,"byteOffset":6480,"componentType":5126,"count":16,"min":[-0.11151468753814697,-0.0788528248667717,-0.3403092324733734],"max":[0.08928681910037995,0.11580762267112732,-0.015611333772540093],"type":"VEC3","name":"x6_nose_cone_blurred_vertices#0_POSITION"},{"bufferView":3,"byteOffset":6492,"componentType":5120,"count":16,"type":"VEC4","name":"x6_nose_cone_blurred_vertices#0_TANGENT"},{"bufferView":3,"byteOffset":6496,"componentType":5120,"count":16,"type":"VEC4","name":"x6_nose_cone_blurred_vertices#0_NORMAL"},{"bufferView":3,"byteOffset":6500,"componentType":5122,"count":16,"type":"VEC2","name":"x6_nose_cone_blurred_vertices#0_TEXCOORD_0"},{"bufferView":3,"byteOffset":6504,"componentType":5122,"count":16,"type":"VEC2","name":"x6_nose_cone_blurred_vertices#0_TEXCOORD_1"},{"bufferView":3,"byteOffset":6508,"componentType":5123,"count":16,"type":"VEC4","name":"x6_nose_cone_blurred_vertices#0_COLOR_0"},{"bufferView":4,"byteOffset":690,"componentType":5123,"count":45,"type":"SCALAR","name":"x6_nose_cone_blurred_indices#0"},{"bufferView":3,"byteOffset":7056,"componentType":5126,"count":90,"min":[-0.02190089225769043,-0.02190101146697998,-0.0072021484375],"max":[0.02190089225769043,0.021900996565818788,0.0072021484375],"type":"VEC3","name":"LIGHT_ASOBO_Landing_vertices#0_POSITION"},{"bufferView":3,"byteOffset":7068,"componentType":5120,"count":90,"type":"VEC4","name":"LIGHT_ASOBO_Landing_vertices#0_TANGENT"},{"bufferView":3,"byteOffset":7072,"componentType":5120,"count":90,"type":"VEC4","name":"LIGHT_ASOBO_Landing_vertices#0_NORMAL"},{"bufferView":3,"byteOffset":7076,"componentType":5122,"count":90,"type":"VEC2","name":"LIGHT_ASOBO_Landing_vertices#0_TEXCOORD_0"},{"bufferView":3,"byteOffset":7080,"componentType":5122,"count":90,"type":"VEC2","name":"LIGHT_ASOBO_Landing_vertices#0_TEXCOORD_1"},{"bufferView":3,"byteOffset":7084,"componentType":5123,"count":90,"type":"VEC4","name":"LIGHT_ASOBO_Landing_vertices#0_COLOR_0"},{"bufferView":4,"byteOffset":780,"componentType":5123,"count":408,"type":"SCALAR","name":"LIGHT_ASOBO_Landing_indices#0"},{"bufferView":3,"byteOffset":10296,"componentType":5126,"count":66,"min":[-0.0012259483337402344,-0.00514085590839386,0.030854180455207826],"max":[0.0012264251708984376,0.00514085590839386,0.033530011773109439],"type":"VEC3","name":"LIGHT_ASOBO_Navigation_Red_vertices#0_POSITION"},{"bufferView":3,"byteOffset":10308,"componentType":5120,"count":66,"type":"VEC4","name":"LIGHT_ASOBO_Navigation_Red_vertices#0_TANGENT"},{"bufferView":3,"byteOffset":10312,"componentType":5120,"count":66,"type":"VEC4","name":"LIGHT_ASOBO_Navigation_Red_vertices#0_NORMAL"},{"bufferView":3,"byteOffset":10316,"componentType":5122,"count":66,"type":"VEC2","name":"LIGHT_ASOBO_Navigation_Red_vertices#0_TEXCOORD_0"},{"bufferView":3,"byteOffset":10320,"componentType":5122,"count":66,"type":"VEC2","name":"LIGHT_ASOBO_Navigation_Red_vertices#0_TEXCOORD_1"},{"bufferView":3,"byteOffset":10324,"componentType":5123,"count":66,"type":"VEC4","name":"LIGHT_ASOBO_Navigation_Red_vertices#0_COLOR_0"},{"bufferView":4,"byteOffset":1596,"componentType":5123,"count":144,"type":"SCALAR","name":"LIGHT_ASOBO_Navigation_Red_indices#0"},{"bufferView":3,"byteOffset":12672,"componentType":5126,"count":86,"min":[-4.1471710205078129,-0.0034960806369781496,-0.02988027036190033],"max":[-4.140942573547363,0.0030189603567123415,0.02356874942779541],"type":"VEC3","name":"LIGHT_ASOBO_StrobeRight_vertices#0_POSITION"},{"bufferView":3,"byteOffset":12684,"componentType":5120,"count":86,"type":"VEC4","name":"LIGHT_ASOBO_StrobeRight_vertices#0_TANGENT"},{"bufferView":3,"byteOffset":12688,"componentType":5120,"count":86,"type":"VEC4","name":"LIGHT_ASOBO_StrobeRight_vertices#0_NORMAL"},{"bufferView":3,"byteOffset":12692,"componentType":5122,"count":86,"type":"VEC2","name":"LIGHT_ASOBO_StrobeRight_vertices#0_TEXCOORD_0"},{"bufferView":3,"byteOffset":12696,"componentType":5122,"count":86,"type":"VEC2","name":"LIGHT_ASOBO_StrobeRight_vertices#0_TEXCOORD_1"},{"bufferView":3,"byteOffset":12700,"componentType":5123,"count":86,"type":"VEC4","name":"LIGHT_ASOBO_StrobeRight_vertices#0_COLOR_0"},{"bufferView":4,"byteOffset":1884,"componentType":5123,"count":138,"type":"SCALAR","name":"LIGHT_ASOBO_StrobeRight_indices#0"},{"bufferView":3,"byteOffset":15768,"componentType":5126,"count":66,"min":[-0.0012264251708984376,-0.00514085590839386,0.030854180455207826],"max":[0.0012259483337402344,0.00514085590839386,0.033530011773109439],"type":"VEC3","name":"LIGHT_ASOBO_Navigation_Green_vertices#0_POSITION"},{"bufferView":3,"byteOffset":15780,"componentType":5120,"count":66,"type":"VEC4","name":"LIGHT_ASOBO_Navigation_Green_vertices#0_TANGENT"},{"bufferView":3,"byteOffset":15784,"componentType":5120,"count":66,"type":"VEC4","name":"LIGHT_ASOBO_Navigation_Green_vertices#0_NORMAL"},{"bufferView":3,"byteOffset":15788,"componentType":5122,"count":66,"type":"VEC2","name":"LIGHT_ASOBO_Navigation_Green_vertices#0_TEXCOORD_0"},{"bufferView":3,"byteOffset":15792,"componentType":5122,"count":66,"type":"VEC2","name":"LIGHT_ASOBO_Navigation_Green_vertices#0_TEXCOORD_1"},{"bufferView":3,"byteOffset":15796,"componentType":5123,"count":66,"type":"VEC4","name":"LIGHT_ASOBO_Navigation_Green_vertices#0_COLOR_0"},{"bufferView":4,"byteOffset":2160,"componentType":5123,"count":144,"type":"SCALAR","name":"LIGHT_ASOBO_Navigation_Green_indices#0"},{"bufferView":3,"byteOffset":18144,"componentType":5126,"count":106,"min":[-0.0200197696685791,-0.0036811232566833498,-0.020016193389892579],"max":[0.0200197696685791,0.0036810636520385744,0.020016193389892579],"type":"VEC3","name":"LIGHT_ASOBO_StrobeTail_vertices#0_POSITION"},{"bufferView":3,"byteOffset":18156,"componentType":5120,"count":106,"type":"VEC4","name":"LIGHT_ASOBO_StrobeTail_vertices#0_TANGENT"},{"bufferView":3,"byteOffset":18160,"componentType":5120,"count":106,"type":"VEC4","name":"LIGHT_ASOBO_StrobeTail_vertices#0_NORMAL"},{"bufferView":3,"byteOffset":18164,"componentType":5122,"count":106,"type":"VEC2","name":"LIGHT_ASOBO_StrobeTail_vertices#0_TEXCOORD_0"},{"bufferView":3,"byteOffset":18168,"componentType":5122,"count":106,"type":"VEC2","name":"LIGHT_ASOBO_StrobeTail_vertices#0_TEXCOORD_1"},{"bufferView":3,"byteOffset":18172,"componentType":5123,"count":106,"type":"VEC4","name":"LIGHT_ASOBO_StrobeTail_vertices#0_COLOR_0"},{"bufferView":4,"byteOffset":2448,"componentType":5123,"count":480,"type":"SCALAR","name":"LIGHT_ASOBO_StrobeTail_indices#0"},{"bufferView":3,"byteOffset":21960,"componentType":5126,"count":12,"min":[-0.24912899732589723,-0.6788681149482727,-1.590003490447998],"max":[3.179945468902588,-0.06300435960292816,1.274183750152588],"type":"VEC3","name":"x6_Registration_Exterior_vertices#0_POSITION"},{"bufferView":3,"byteOffset":21972,"componentType":5120,"count":12,"type":"VEC4","name":"x6_Registration_Exterior_vertices#0_TANGENT"},{"bufferView":3,"byteOffset":21976,"componentType":5120,"count":12,"type":"VEC4","name":"x6_Registration_Exterior_vertices#0_NORMAL"},{"bufferView":3,"byteOffset":21980,"componentType":5122,"count":12,"type":"VEC2","name":"x6_Registration_Exterior_vertices#0_TEXCOORD_0"},{"bufferView":3,"byteOffset":21984,"componentType":5122,"count":12,"type":"VEC2","name":"x6_Registration_Exterior_vertices#0_TEXCOORD_1"},{"bufferView":3,"byteOffset":21988,"componentType":5123,"count":12,"type":"VEC4","name":"x6_Registration_Exterior_vertices#0_COLOR_0"},{"bufferView":4,"byteOffset":3408,"componentType":5123,"count":18,"type":"SCALAR","name":"x6_Registration_Exterior_indices#0"},{"bufferView":3,"byteOffset":22392,"componentType":5126,"count":86,"min":[4.140942573547363,-0.0034960508346557619,-0.02988027036190033],"max":[4.1471710205078129,0.003018975257873535,0.023568734526634218],"type":"VEC3","name":"LIGHT_ASOBO_StrobeLeft_vertices#0_POSITION"},{"bufferView":3,"byteOffset":22404,"componentType":5120,"count":86,"type":"VEC4","name":"LIGHT_ASOBO_StrobeLeft_vertices#0_TANGENT"},{"bufferView":3,"byteOffset":22408,"componentType":5120,"count":86,"type":"VEC4","name":"LIGHT_ASOBO_StrobeLeft_vertices#0_NORMAL"},{"bufferView":3,"byteOffset":22412,"componentType":5122,"count":86,"type":"VEC2","name":"LIGHT_ASOBO_StrobeLeft_vertices#0_TEXCOORD_0"},{"bufferView":3,"byteOffset":22416,"componentType":5122,"count":86,"type":"VEC2","name":"LIGHT_ASOBO_StrobeLeft_vertices#0_TEXCOORD_1"},{"bufferView":3,"byteOffset":22420,"componentType":5123,"count":86,"type":"VEC4","name":"LIGHT_ASOBO_StrobeLeft_vertices#0_COLOR_0"},{"bufferView":4,"byteOffset":3444,"componentType":5123,"count":138,"type":"SCALAR","name":"LIGHT_ASOBO_StrobeLeft_indices#0"},{"bufferView":3,"byteOffset":25488,"componentType":5126,"count":3454,"min":[-4.147188186645508,-0.012915536761283875,-0.05534864962100983],"max":[4.147188186645508,0.012915544211864472,0.05534864962100983],"type":"VEC3","name":"x0_Lights_Base_vertices#0_POSITION"},{"bufferView":3,"byteOffset":25500,"componentType":5120,"count":3454,"type":"VEC4","name":"x0_Lights_Base_vertices#0_TANGENT"},{"bufferView":3,"byteOffset":25504,"componentType":5120,"count":3454,"type":"VEC4","name":"x0_Lights_Base_vertices#0_NORMAL"},{"bufferView":3,"byteOffset":25508,"componentType":5122,"count":3454,"type":"VEC2","name":"x0_Lights_Base_vertices#0_TEXCOORD_0"},{"bufferView":3,"byteOffset":25512,"componentType":5122,"count":3454,"type":"VEC2","name":"x0_Lights_Base_vertices#0_TEXCOORD_1"},{"bufferView":3,"byteOffset":25516,"componentType":5123,"count":3454,"type":"VEC4","name":"x0_Lights_Base_vertices#0_COLOR_0"},{"bufferView":4,"byteOffset":3720,"componentType":5123,"count":12276,"type":"SCALAR","name":"x0_Lights_Base_indices#0"}],"animations":[{"name":"prop_anim","channels":[{"sampler":0,"target":{"node":2,"path":"rotation"}}],"samplers":[{"input":0,"output":1,"interpolation":"LINEAR"}]},{"name":"prop0_slow","channels":[{"sampler":0,"target":{"node":4,"path":"scale"}}],"samplers":[{"input":2,"output":3,"interpolation":"LINEAR"}]},{"name":"prop0_blurred","channels":[{"sampler":0,"target":{"node":5,"path":"scale"}}],"samplers":[{"input":4,"output":5,"interpolation":"LINEAR"}]}],"asset":{"generator":"babylon.js glTF exporter for 3dsmax 2019 v1.5.0","version":"2.0","extensions":{"ASOBO_asset_optimized":{"BoundingBoxMax":[4.202510833740234,0.7976889610290527,2.311440944671631],"BoundingBoxMin":[-4.202510833740234,-0.9786112308502197,-3.6343815326690676],"MajorVersion":4,"MinorVersion":2},"ASOBO_normal_map_convention":{"tangent_space_convention":"DirectX"}}},"bufferViews":[{"buffer":0,"byteLength":36,"byteOffset":92,"name":"bufferViewAnimationFloatScalar"},{"buffer":0,"byteLength":80,"byteOffset":176,"name":"bufferViewAnimationFloatVec4"},{"buffer":0,"byteLength":48,"byteOffset":336,"name":"bufferViewAnimationFloatVec3"},{"buffer":0,"byteLength":149832,"byteStride":36,"byteOffset":440,"target":34962,"name":"BufferViewVertexND"},{"buffer":0,"byteLength":28272,"byteOffset":150288,"target":34963,"name":"BufferViewIndex"}],"extensionsUsed":["ASOBO_normal_map_convention","ASOBO_material_draw_order","ASOBO_material_shadow_options","ASOBO_material_blend_gbuffer","MSFT_texture_dds","ASOBO_asset_optimized"],"extensionsRequired":["MSFT_texture_dds"],"materials":[{"name":"LOD_x6","alphaMode":"BLEND","pbrMetallicRoughness":{"metallicFactor":0.0,"roughnessFactor":0.0},"extras":{"ASOBO_material_code":"Windshield"}},{"name":"prop_still","normalTexture":{"index":2},"occlusionTexture":{"index":1},"pbrMetallicRoughness":{"baseColorTexture":{"index":0},"metallicRoughnessTexture":{"index":1}}},{"name":"LIGHTS","normalTexture":{"index":5},"occlusionTexture":{"index":4},"emissiveTexture":{"index":6},"pbrMetallicRoughness":{"baseColorTexture":{"index":3},"metallicRoughnessTexture":{"index":4}}},{"name":"$RegistrationNumber","alphaMode":"BLEND","doubleSided":true,"pbrMetallicRoughness":{"baseColorFactor":[0.05,0.05,0.05,0.977],"metallicFactor":0.88,"roughnessFactor":0.81},"extensions":{"ASOBO_material_blend_gbuffer":{"emissiveBlendFactor":0.0,"normalBlendFactor":0.0,"occlusionBlendFactor":0.0,"roughnessBlendFactor":0.1},"ASOBO_material_draw_order":{"drawOrderOffset":5},"ASOBO_material_shadow_options":{"noCastShadow":true}}},{"name":"Lights_Base","normalTexture":{"index":9},"occlusionTexture":{"index":8},"emissiveTexture":{"index":10},"pbrMetallicRoughness":{"baseColorTexture":{"index":7},"metallicRoughnessTexture":{"index":8}}}],"meshes":[{"primitives":[{"attributes":{"COLOR_0":11,"NORMAL":8,"POSITION":6,"TANGENT":7,"TEXCOORD_0":9,"TEXCOORD_1":10},"indices":12,"material":0,"mode":4,"extras":{"ASOBO_primitive":{"PrimitiveCount":90,"VertexType":"VTX","VertexVersion":2}}}],"name":"x6_fuselage"},{"primitives":[{"attributes":{"COLOR_0":18,"NORMAL":15,"POSITION":13,"TANGENT":14,"TEXCOORD_0":16,"TEXCOORD_1":17},"indices":19,"material":0,"mode":4,"extras":{"ASOBO_primitive":{"PrimitiveCount":10,"VertexType":"VTX","VertexVersion":2}}}],"name":"x6_Prop0_Still"},{"primitives":[{"attributes":{"COLOR_0":25,"NORMAL":22,"POSITION":20,"TANGENT":21,"TEXCOORD_0":23,"TEXCOORD_1":24},"indices":26,"material":1,"mode":4,"extras":{"ASOBO_primitive":{"PrimitiveCount":15,"VertexType":"VTX","VertexVersion":2}}}],"name":"x6_nose_cone_slow"},{"primitives":[{"attributes":{"COLOR_0":32,"NORMAL":29,"POSITION":27,"TANGENT":28,"TEXCOORD_0":30,"TEXCOORD_1":31},"indices":33,"material":1,"mode":4,"extras":{"ASOBO_primitive":{"PrimitiveCount":15,"VertexType":"VTX","VertexVersion":2}}}],"name":"x6_nose_cone_blurred"},{"primitives":[{"attributes":{"COLOR_0":39,"NORMAL":36,"POSITION":34,"TANGENT":35,"TEXCOORD_0":37,"TEXCOORD_1":38},"indices":40,"material":2,"mode":4,"extras":{"ASOBO_primitive":{"PrimitiveCount":136,"VertexType":"VTX","VertexVersion":2}}}],"name":"LIGHT_ASOBO_Landing"},{"primitives":[{"attributes":{"COLOR_0":46,"NORMAL":43,"POSITION":41,"TANGENT":42,"TEXCOORD_0":44,"TEXCOORD_1":45},"indices":47,"material":2,"mode":4,"extras":{"ASOBO_primitive":{"PrimitiveCount":48,"VertexType":"VTX","VertexVersion":2}}}],"name":"LIGHT_ASOBO_Navigation_Red"},{"primitives":[{"attributes":{"COLOR_0":53,"NORMAL":50,"POSITION":48,"TANGENT":49,"TEXCOORD_0":51,"TEXCOORD_1":52},"indices":54,"material":2,"mode":4,"extras":{"ASOBO_primitive":{"PrimitiveCount":46,"VertexType":"VTX","VertexVersion":2}}}],"name":"LIGHT_ASOBO_StrobeRight"},{"primitives":[{"attributes":{"COLOR_0":60,"NORMAL":57,"POSITION":55,"TANGENT":56,"TEXCOORD_0":58,"TEXCOORD_1":59},"indices":61,"material":2,"mode":4,"extras":{"ASOBO_primitive":{"PrimitiveCount":48,"VertexType":"VTX","VertexVersion":2}}}],"name":"LIGHT_ASOBO_Navigation_Green"},{"primitives":[{"attributes":{"COLOR_0":67,"NORMAL":64,"POSITION":62,"TANGENT":63,"TEXCOORD_0":65,"TEXCOORD_1":66},"indices":68,"material":2,"mode":4,"extras":{"ASOBO_primitive":{"PrimitiveCount":160,"VertexType":"VTX","VertexVersion":2}}}],"name":"LIGHT_ASOBO_StrobeTail"},{"primitives":[{"attributes":{"COLOR_0":74,"NORMAL":71,"POSITION":69,"TANGENT":70,"TEXCOORD_0":72,"TEXCOORD_1":73},"indices":75,"material":3,"mode":4,"extras":{"ASOBO_primitive":{"PrimitiveCount":6,"VertexType":"VTX","VertexVersion":2}}}],"name":"x6_Registration_Exterior"},{"primitives":[{"attributes":{"COLOR_0":81,"NORMAL":78,"POSITION":76,"TANGENT":77,"TEXCOORD_0":79,"TEXCOORD_1":80},"indices":82,"material":2,"mode":4,"extras":{"ASOBO_primitive":{"PrimitiveCount":46,"VertexType":"VTX","VertexVersion":2}}}],"name":"LIGHT_ASOBO_StrobeLeft"},{"primitives":[{"attributes":{"COLOR_0":88,"NORMAL":85,"POSITION":83,"TANGENT":84,"TEXCOORD_0":86,"TEXCOORD_1":87},"indices":89,"material":4,"mode":4,"extras":{"ASOBO_primitive":{"PrimitiveCount":4092,"VertexType":"VTX","VertexVersion":2}}}],"name":"x0_Lights_Base"}],"nodes":[{"translation":[5.96046448e-8,0.443891346,-0.630051732],"rotation":[0.0,0.0,0.0,1.0],"scale":[1.0,1.0,1.0],"mesh":0,"name":"fuselage"},{"translation":[0.0,0.0,0.0],"rotation":[0.0,0.0,0.0,1.0],"scale":[1.0,1.0,1.0],"name":"Hips","children":[2,6,7,8,9,10]},{"translation":[-0.000007699825,0.0000398308039,1.66719341],"rotation":[-1.88927e-7,0.7071068,1.79707385e-7,0.7071067],"scale":[0.99999994,1.0,1.0],"name":"Prop1","children":[3,4,5]},{"translation":[0.0,-5.122274e-9,1.1920929e-7],"rotation":[1.68587349e-7,0.7071066,1.68587434e-7,0.707106948],"scale":[1.0,1.0,1.00000012],"mesh":1,"name":"Prop0_Still"},{"translation":[0.0,-5.122274e-9,2.38418124e-7],"rotation":[1.68587334e-7,0.7071065,1.68587462e-7,0.707107067],"scale":[1.0,1.0,1.00000012],"mesh":2,"name":"nose_cone_slow"},{"translation":[0.0,-5.125912e-9,2.38418124e-7],"rotation":[0.0,0.7071065,0.0,0.707107067],"scale":[1.0,1.0,1.00000012],"mesh":3,"name":"nose_cone_blurred"},{"translation":[0.205829382,-0.2315734,1.44825935],"rotation":[0.0,0.0,0.0,1.0],"scale":[1.0,1.0,1.0],"mesh":4,"name":"LIGHT_ASOBO_Landing"},{"translation":[4.14196968,-0.123670548,-0.238118485],"rotation":[0.0,0.0,0.0,1.0],"scale":[1.0,1.0,1.0],"mesh":5,"name":"LIGHT_ASOBO_Navigation_Red"},{"translation":[0.0,-0.12480773,-0.241768226],"rotation":[0.0,0.0,0.0,1.0],"scale":[1.0,1.0,1.0],"mesh":6,"name":"LIGHT_ASOBO_StrobeRight"},{"translation":[-4.14196968,-0.123670563,-0.23811847],"rotation":[0.0,0.0,0.0,1.0],"scale":[1.0,1.0,1.0],"mesh":7,"name":"LIGHT_ASOBO_Navigation_Green"},{"translation":[2.38418579e-7,0.9995184,-3.94339585],"rotation":[0.0,0.0,0.0,1.0],"scale":[1.0,1.0,1.0],"mesh":8,"name":"LIGHT_ASOBO_StrobeTail"},{"translation":[0.0,0.20695138,-1.18062043],"rotation":[0.0,0.0,0.0,1.0],"scale":[1.0,1.0,1.0],"mesh":9,"name":"Registration_Exterior"},{"translation":[0.0,-0.12480773,-0.241768226],"rotation":[0.0,0.0,0.0,1.0],"scale":[1.0,1.0,1.0],"mesh":10,"name":"LIGHT_ASOBO_StrobeLeft"},{"translation":[0.0,-0.12480773,-0.241768226],"rotation":[0.0,0.0,0.0,1.0],"scale":[1.0,1.0,1.0],"mesh":11,"name":"Lights_Base"},{"translation":[4.145549,-0.123195112,-0.199108988],"rotation":[0.0,0.0,0.0,1.0],"scale":[1.0,1.0,1.0],"name":"LIGHT_ASOBO_Navigation_Red_Pos"},{"translation":[4.156172,-0.123195112,-0.243490338],"rotation":[0.0,0.0,0.0,1.0],"scale":[1.0,1.0,1.0],"name":"LIGHT_ASOBO_StrobeLeft_Pos"},{"translation":[-4.14356041,-0.123195112,-0.199123472],"rotation":[0.0,0.0,0.0,1.0],"scale":[1.0,1.0,1.0],"name":"LIGHT_ASOBO_Navigation_Green_Pos"},{"translation":[-4.15412951,-0.123195112,-0.240413144],"rotation":[0.0,0.0,0.0,1.0],"scale":[1.0,1.0,1.0],"name":"LIGHT_ASOBO_StrobeRight_Pos"},{"translation":[0.205829382,-0.231573343,1.47212529],"rotation":[0.0,0.0,0.0,1.0],"scale":[1.0,1.0,1.0],"name":"LIGHT_ASOBO_Landing_Pos"},{"translation":[2.38418579e-7,1.00978124,-3.94606733],"rotation":[0.0,0.0,0.0,1.0],"scale":[1.0,1.0,1.0],"name":"LIGHT_ASOBO_StrobeTail_Pos"}],"scene":0,"scenes":[{"nodes":[0,1,11,12,13,14,15,16,17,18,19]}],"textures":[{"extensions":{"MSFT_texture_dds":{"source":0}}},{"extensions":{"MSFT_texture_dds":{"source":1}}},{"extensions":{"MSFT_texture_dds":{"source":2}}},{"extensions":{"MSFT_texture_dds":{"source":3}}},{"extensions":{"MSFT_texture_dds":{"source":4}}},{"extensions":{"MSFT_texture_dds":{"source":5}}},{"extensions":{"MSFT_texture_dds":{"source":6}}},{"extensions":{"MSFT_texture_dds":{"source":7}}},{"extensions":{"MSFT_texture_dds":{"source":8}}},{"extensions":{"MSFT_texture_dds":{"source":9}}},{"extensions":{"MSFT_texture_dds":{"source":10}}}],"buffers":[{"byteLength":178560,"uri":"VL3_LOD06.bin"}],"images":[{"uri":"JMB_VL3_AIRFRAME_PROP_STILL_ALBD.PNG.DDS","extras":"ASOBO_image_converted_meta"},{"uri":"JMB_VL3_AIRFRAME_PROP_STILL_COMP.PNG.DDS","extras":"ASOBO_image_converted_meta"},{"uri":"JMB_VL3_AIRFRAME_PROP_STILL_NORM.PNG.DDS","extras":"ASOBO_image_converted_meta"},{"uri":"WARNINGLIGHTS_ALBD.PNG.DDS","extras":"ASOBO_image_converted_meta"},{"uri":"WARNINGLIGHTS_COMP.PNG.DDS","extras":"ASOBO_image_converted_meta"},{"uri":"WARNINGLIGHTS_NORM.PNG.DDS","extras":"ASOBO_image_converted_meta"},{"uri":"WARNINGLIGHTS_EMIS.PNG.DDS","extras":"ASOBO_image_converted_meta"},{"uri":"JMB_VL3_AIRFRAME_EMISSIVE_ALBD.PNG.DDS","extras":"ASOBO_image_converted_meta"},{"uri":"JMB_VL3_AIRFRAME_EMISSIVE_COMP.PNG.DDS","extras":"ASOBO_image_converted_meta"},{"uri":"JMB_VL3_AIRFRAME_EMISSIVE_NORM.PNG.DDS","extras":"ASOBO_image_converted_meta"},{"uri":"JMB_VL3_AIRFRAME_EMISSIVE_EMISS.PNG.DDS","extras":"ASOBO_image_converted_meta"}]}
